<svg
  xmlns="http://www.w3.org/2000/svg"
  viewBox="0 0 100 100"
  width="256"
  height="256"
  font-family="Helvetica Neue"
  font-weight="300"
>
  <path fill="#000" d="
    M 45 10
    l 10 0
    l 5 5
    l 0 70
    l -5 5
    l -10 0
    l 0 10
    l 40 0
    l 0 -10
    l -10 0
    l -5 -5
    l 0 -70
    l 5 -5
    l 10 0
    l 0 -10
    l -40 0
    z

    M 75 35
    l 15 0
    l 0 30
    l -15 0
    l 0 10
    l 25 0
    l 0 -50
    l -25 0
    z

    M 55 25
    l -55 0
    l 0 50
    l 55 0
    l 0 -10
    l -45 0
    l 0 -30
    l 45 0
    z

    M 15 40
    l 0 20
    l 35 0
    l 0 -20
    z
  " />
</svg>
