<svg
  xmlns="http://www.w3.org/2000/svg"
  viewBox="0 0 100 100"
  width="256"
  height="26"
  font-family="Helvetica Neue"
  font-weight="300"
>
  <path fill="#000" d="
    M 10 0
    l 0 100
    l 80 0
    l 0 -70
    l -30 -30
    z

    M 60 5
    l 25 25
    l -25 0
    z

    M 15 5
    l 40 0
    l 0 30
    l 30 0
    l 0 60
    l -70 0
    z

    M 25 10
    m 0 5
    l 0 5
    l 20 0
    l 0 -5
    z

    M 25 25
    m 0 5
    l 0 5
    l 20 0
    l 0 -5
    z

    M 25 40
    m 0 5
    l 0 5
    l 50 0
    l 0 -5
    z

    M 25 55
    m 0 5
    l 0 5
    l 50 0
    l 0 -5
    z

    M 25 70
    m 0 5
    l 0 5
    l 40 0
    l 0 -5
    z
  " />
</svg>
